<mxfile host="app.diagrams.net" modified="2024-07-06T05:20:19.818Z" agent="Mozilla/5.0 (Macintosh; Intel Mac OS X 10_15_7) AppleWebKit/605.1.15 (KHTML, like Gecko) Version/17.3.1 Safari/605.1.15" version="24.6.4" etag="nhAbGN-HRuv-3sPA1poN" type="github">
  <diagram name="Page-1" id="tnyJSder13Qot7ryO2jD">
    <mxGraphModel>
      <root>
        <mxCell id="0" />
        <mxCell id="1" parent="0" />
      </root>
    </mxGraphModel>
  </diagram>
</mxfile>
